<svg width="46" height="46" viewBox="0 0 46 46" fill="none" xmlns="http://www.w3.org/2000/svg">
<g filter="url(#filter0_d_8_121)">
<path d="M33.0732 18.931C32.9524 18.9313 32.8337 18.8996 32.729 18.8393C32.6243 18.7789 32.5375 18.692 32.4772 18.5873L26.3729 8.01421C26.2831 7.85638 26.2595 7.66948 26.307 7.49427C26.3546 7.31907 26.4696 7.16979 26.6268 7.07902C26.784 6.98824 26.9707 6.96334 27.1463 7.00974C27.3218 7.05615 27.4718 7.17009 27.5636 7.32671L33.6679 17.8998C33.7282 18.0042 33.76 18.1227 33.76 18.2433C33.7601 18.364 33.7284 18.4825 33.6681 18.587C33.6079 18.6915 33.5212 18.7783 33.4168 18.8386C33.3123 18.899 33.1939 18.9309 33.0732 18.931ZM12.9274 18.931C12.8067 18.9311 12.6881 18.8994 12.5836 18.839C12.4791 18.7787 12.3923 18.6919 12.332 18.5873C12.2717 18.4827 12.24 18.3641 12.2401 18.2434C12.2403 18.1227 12.2722 18.0042 12.3327 17.8998L18.4371 7.32671C18.4822 7.24852 18.5423 7.17999 18.6139 7.12503C18.6856 7.07007 18.7673 7.02976 18.8545 7.00639C18.9417 6.98303 19.0327 6.97707 19.1222 6.98885C19.2117 7.00064 19.298 7.02994 19.3762 7.07508C19.4544 7.12022 19.5229 7.18032 19.5779 7.25195C19.6328 7.32357 19.6731 7.40532 19.6965 7.49253C19.7199 7.57974 19.7258 7.67069 19.714 7.7602C19.7023 7.84971 19.673 7.93602 19.6278 8.01421L13.5235 18.5873C13.3956 18.8073 13.1646 18.931 12.9274 18.931ZM40.875 20.9935H5.125C4.94266 20.9935 4.7678 20.9211 4.63886 20.7922C4.50993 20.6632 4.4375 20.4884 4.4375 20.306C4.4375 20.1237 4.50993 19.9488 4.63886 19.8199C4.7678 19.691 4.94266 19.6185 5.125 19.6185H40.875C41.0573 19.6185 41.2322 19.691 41.3611 19.8199C41.4901 19.9488 41.5625 20.1237 41.5625 20.306C41.5625 20.4884 41.4901 20.6632 41.3611 20.7922C41.2322 20.9211 41.0573 20.9935 40.875 20.9935Z" fill="black"/>
<path d="M5.125 20.9935C4.94266 20.9935 4.7678 20.9211 4.63886 20.7921C4.50993 20.6632 4.4375 20.4883 4.4375 20.306V16.181C4.4375 15.9987 4.50993 15.8238 4.63886 15.6949C4.7678 15.5659 4.94266 15.4935 5.125 15.4935C5.30734 15.4935 5.4822 15.5659 5.61114 15.6949C5.74007 15.8238 5.8125 15.9987 5.8125 16.181V20.306C5.8125 20.4883 5.74007 20.6632 5.61114 20.7921C5.4822 20.9211 5.30734 20.9935 5.125 20.9935Z" fill="black"/>
<path d="M40.875 16.8685H5.125C4.94266 16.8685 4.7678 16.7961 4.63886 16.6671C4.50993 16.5382 4.4375 16.3633 4.4375 16.181C4.4375 15.9987 4.50993 15.8238 4.63886 15.6949C4.7678 15.5659 4.94266 15.4935 5.125 15.4935H40.875C41.0573 15.4935 41.2322 15.5659 41.3611 15.6949C41.4901 15.8238 41.5625 15.9987 41.5625 16.181C41.5625 16.3633 41.4901 16.5382 41.3611 16.6671C41.2322 16.7961 41.0573 16.8685 40.875 16.8685Z" fill="black"/>
<path d="M41.0495 20.5C40.8672 20.5 40.6923 20.4276 40.5634 20.2986C40.4345 20.1697 40.362 19.9948 40.362 19.8125V15.6875C40.362 15.5052 40.4345 15.3303 40.5634 15.2014C40.6923 15.0724 40.8672 15 41.0495 15C41.2319 15 41.4067 15.0724 41.5357 15.2014C41.6646 15.3303 41.737 15.5052 41.737 15.6875V19.8125C41.737 19.9948 41.6646 20.1697 41.5357 20.2986C41.4067 20.4276 41.2319 20.5 41.0495 20.5ZM32.354 33.5625C32.2586 33.5628 32.1641 33.5432 32.0767 33.5049C31.9893 33.4666 31.9108 33.4105 31.8463 33.3402C31.7818 33.2698 31.7327 33.1868 31.7021 33.0964C31.6715 33.006 31.6601 32.9102 31.6686 32.8152L32.5135 23.1902C32.5207 23.0999 32.5457 23.012 32.5872 22.9316C32.6287 22.8511 32.6858 22.7797 32.7552 22.7215C32.8245 22.6634 32.9048 22.6196 32.9913 22.5928C33.0777 22.5659 33.1687 22.5566 33.2588 22.5653C33.6369 22.5983 33.9167 22.9317 33.883 23.3098L33.0381 32.9348C33.0231 33.106 32.9446 33.2654 32.818 33.3816C32.6914 33.4977 32.5259 33.5623 32.354 33.5625ZM27.765 33.5625L27.734 33.5618C27.5519 33.5538 27.3804 33.4737 27.2572 33.3393C27.1341 33.2048 27.0694 33.0269 27.0775 32.8448L27.4996 23.2198C27.5094 23.0382 27.59 22.8678 27.724 22.745C27.8581 22.6223 28.035 22.557 28.2166 22.5632C28.3988 22.5712 28.5703 22.6513 28.6934 22.7857C28.8166 22.9202 28.8812 23.0981 28.8732 23.2803L28.4511 32.9053C28.4433 33.0821 28.3676 33.249 28.2398 33.3715C28.112 33.4939 27.9419 33.5623 27.765 33.5625ZM23.1745 33.5625C22.9922 33.5625 22.8173 33.4901 22.6884 33.3611C22.5595 33.2322 22.487 33.0573 22.487 32.875V23.25C22.487 23.0677 22.5595 22.8928 22.6884 22.7639C22.8173 22.6349 22.9922 22.5625 23.1745 22.5625C23.3569 22.5625 23.5317 22.6349 23.6607 22.7639C23.7896 22.8928 23.862 23.0677 23.862 23.25V32.875C23.862 33.0573 23.7896 33.2322 23.6607 33.3611C23.5317 33.4901 23.3569 33.5625 23.1745 33.5625ZM18.5848 33.5625C18.4078 33.5623 18.2377 33.4939 18.1099 33.3715C17.9821 33.249 17.9064 33.0821 17.8986 32.9053L17.4765 23.2803C17.4685 23.0981 17.5332 22.9202 17.6563 22.7857C17.7794 22.6513 17.9509 22.5712 18.1331 22.5632C18.3149 22.5564 18.4921 22.6216 18.6263 22.7444C18.7604 22.8673 18.8409 23.038 18.8501 23.2198L19.2723 32.8448C19.2803 33.0269 19.2156 33.2048 19.0925 33.3393C18.9694 33.4737 18.7979 33.5538 18.6157 33.5618L18.5848 33.5625ZM13.995 33.5625C13.8232 33.5623 13.6577 33.4977 13.531 33.3816C13.4044 33.2654 13.3259 33.106 13.311 32.9348L12.4667 23.3098C12.4569 23.2189 12.4653 23.1269 12.4915 23.0393C12.5177 22.9516 12.5611 22.8701 12.6192 22.7994C12.6773 22.7288 12.7489 22.6704 12.8298 22.6278C12.9107 22.5852 12.9993 22.5591 13.0904 22.5512C13.1815 22.5432 13.2733 22.5535 13.3604 22.5815C13.4475 22.6094 13.5281 22.6545 13.5976 22.714C13.667 22.7735 13.7239 22.8463 13.7649 22.928C13.8059 23.0098 13.8301 23.0989 13.8362 23.1902L14.6805 32.8152C14.6888 32.9102 14.6772 33.0059 14.6465 33.0962C14.6158 33.1865 14.5667 33.2694 14.5022 33.3397C14.4378 33.41 14.3594 33.4661 14.2721 33.5045C14.1847 33.5428 14.0904 33.5626 13.995 33.5625ZM9.54415 34.6089C9.37747 34.6086 9.21656 34.5478 9.09136 34.4378C8.96616 34.3278 8.88519 34.176 8.86352 34.0107L7.0059 19.9019C6.98208 19.7212 7.03098 19.5384 7.14185 19.3938C7.25272 19.2492 7.41648 19.1545 7.59715 19.1305C7.6868 19.1178 7.77809 19.1231 7.86567 19.146C7.95325 19.169 8.03537 19.2093 8.1072 19.2644C8.17904 19.3195 8.23915 19.3884 8.28402 19.4671C8.3289 19.5457 8.35762 19.6325 8.36852 19.7224L10.2255 33.8313C10.2383 33.9283 10.2302 34.027 10.2019 34.1206C10.1735 34.2143 10.1255 34.3008 10.061 34.3745C9.99647 34.4481 9.917 34.5071 9.82788 34.5475C9.73875 34.5879 9.64201 34.6088 9.54415 34.6089ZM36.8056 34.6089C36.7077 34.6089 36.611 34.5881 36.5218 34.5477C36.4327 34.5074 36.3531 34.4485 36.2886 34.3749C36.224 34.3014 36.1759 34.2149 36.1475 34.1213C36.119 34.0277 36.1109 33.929 36.1236 33.832L37.9798 19.7231C37.9911 19.6334 38.02 19.5468 38.065 19.4683C38.11 19.3898 38.1701 19.3211 38.2419 19.266C38.3136 19.211 38.3956 19.1707 38.483 19.1475C38.5705 19.1244 38.6616 19.1188 38.7512 19.1312C38.9319 19.1551 39.0956 19.2498 39.2065 19.3945C39.3174 19.5391 39.3663 19.7219 39.3425 19.9026L37.4862 34.0114C37.4644 34.1766 37.3834 34.3282 37.2582 34.4381C37.133 34.5479 36.9722 34.6086 36.8056 34.6089ZM34.0783 37H12.2708C12.0884 37 11.9136 36.9276 11.7846 36.7986C11.6557 36.6697 11.5833 36.4948 11.5833 36.3125C11.5833 36.1302 11.6557 35.9553 11.7846 35.8264C11.9136 35.6974 12.0884 35.625 12.2708 35.625H34.0783C34.2606 35.625 34.4355 35.6974 34.5644 35.8264C34.6933 35.9553 34.7658 36.1302 34.7658 36.3125C34.7658 36.4948 34.6933 36.6697 34.5644 36.7986C34.4355 36.9276 34.2606 37 34.0783 37Z" fill="black"/>
<path d="M12.0969 37.4935C11.2634 37.4916 10.4589 37.1876 9.83232 36.638C9.20573 36.0884 8.79954 35.3304 8.68898 34.5043C8.67425 34.4134 8.67791 34.3206 8.69972 34.2312C8.72154 34.1418 8.76108 34.0577 8.81599 33.9839C8.87091 33.9101 8.94008 33.848 9.01942 33.8014C9.09875 33.7548 9.18664 33.7246 9.27786 33.7126C9.36908 33.7006 9.46178 33.707 9.55048 33.7315C9.63917 33.756 9.72205 33.798 9.79421 33.8551C9.86636 33.9122 9.92632 33.9832 9.97053 34.0639C10.0147 34.1445 10.0423 34.2333 10.0516 34.3248C10.1181 34.8205 10.362 35.2752 10.738 35.6049C11.1141 35.9346 11.5968 36.1168 12.0969 36.1178C12.2793 36.1178 12.4543 36.1903 12.5833 36.3193C12.7123 36.4483 12.7848 36.6232 12.7848 36.8057C12.7848 36.9881 12.7123 37.1631 12.5833 37.292C12.4543 37.421 12.2793 37.4935 12.0969 37.4935ZM33.9037 37.4935C33.7214 37.4935 33.5465 37.4211 33.4176 37.2921C33.2887 37.1632 33.2162 36.9883 33.2162 36.806C33.2162 36.6237 33.2887 36.4488 33.4176 36.3199C33.5465 36.1909 33.7214 36.1185 33.9037 36.1185C34.4037 36.1172 34.8864 35.9349 35.2623 35.6052C35.6383 35.2756 35.8823 34.821 35.949 34.3255C35.9602 34.2357 35.9891 34.1491 36.0341 34.0706C36.079 33.992 36.1391 33.9233 36.2109 33.8682C36.2827 33.8131 36.3647 33.7728 36.4521 33.7497C36.5396 33.7266 36.6308 33.7211 36.7204 33.7336C36.9011 33.7575 37.0648 33.8522 37.1757 33.9969C37.2866 34.1415 37.3355 34.3243 37.3117 34.5049C37.201 35.3309 36.7947 36.0888 36.1681 36.6383C35.5415 37.1878 34.7371 37.4916 33.9037 37.4935ZM20.2355 7.67045C20.2355 6.11876 17.8293 6.11876 17.8293 7.67045C17.8293 9.22214 20.2355 9.22214 20.2355 7.67045ZM28.1714 7.67045C28.1714 6.11876 25.7651 6.11876 25.7651 7.67045C25.7651 9.22214 28.1714 9.22214 28.1714 7.67045Z" fill="black"/>
</g>
<defs>
<filter id="filter0_d_8_121" x="-3" y="0" width="52" height="52" filterUnits="userSpaceOnUse" color-interpolation-filters="sRGB">
<feFlood flood-opacity="0" result="BackgroundImageFix"/>
<feColorMatrix in="SourceAlpha" type="matrix" values="0 0 0 0 0 0 0 0 0 0 0 0 0 0 0 0 0 0 127 0" result="hardAlpha"/>
<feOffset dy="4"/>
<feGaussianBlur stdDeviation="2"/>
<feComposite in2="hardAlpha" operator="out"/>
<feColorMatrix type="matrix" values="0 0 0 0 0 0 0 0 0 0 0 0 0 0 0 0 0 0 0.25 0"/>
<feBlend mode="normal" in2="BackgroundImageFix" result="effect1_dropShadow_8_121"/>
<feBlend mode="normal" in="SourceGraphic" in2="effect1_dropShadow_8_121" result="shape"/>
</filter>
</defs>
</svg>
